<?xml version="1.0" encoding="UTF-8"?>
<svg width="609px" height="926px" viewBox="0 0 609 926" version="1.1" xmlns="http://www.w3.org/2000/svg" xmlns:xlink="http://www.w3.org/1999/xlink">
    <!-- Generator: Sketch 55.2 (78181) - https://sketchapp.com -->
    <title>Background element 1</title>
    <desc>Created with Sketch.</desc>
    <defs>
        <path d="M50.519,0.001 C28.786,53.309 5.217,191.345 5.217,191.345 L5.217,191.345 C1.14,227.427 -0.534,263.412 0.148,299.168 L0.148,299.168 C2.525,423.911 33.631,545.533 91.928,655.835 L91.928,655.835 C166.957,797.786 282.472,911.227 425.992,983.904 L425.992,983.904 C553.736,1048.593 864.754,1101.427 1065.595,1101.49 L1065.595,1101.49 L1066.351,1101.49 C1098.484,1101.49 1127.802,1100.111 1153.052,1097.22 L1153.052,1097.22 C1310.403,1079.194 1426.465,945.833 1426.549,791.151 L1426.549,791.151 L1426.549,790.777 C1426.549,779.132 1425.877,767.361 1424.524,755.516 L1424.524,755.516 C1405.131,586.193 1252.146,464.651 1082.82,484.048 L1082.82,484.048 C1026.716,490.473 864.032,486.618 738.244,461.207 L738.244,461.207 C236.326,359.813 50.519,0.001 50.519,0.001 Z" id="path-1"></path>
        <linearGradient x1="12.1965912%" y1="15.1323052%" x2="79.1741377%" y2="83.4626683%" id="linearGradient-3">
            <stop stop-color="#00337C" offset="0%"></stop>
            <stop stop-color="#42E6FF" offset="100%"></stop>
        </linearGradient>
    </defs>
    <g id="Page-1" stroke="none" stroke-width="1" fill="none" fill-rule="evenodd">
        <g id="ClickGP-Portfolio" transform="translate(-831.000000, -115.000000)">
            <g id="Header-section" transform="translate(-226.000000, 0.000000)">
                <g id="Group-7">
                    <g id="Background-element-1" transform="translate(1596.500000, 834.000000) rotate(-150.000000) translate(-1596.500000, -834.000000) translate(883.000000, 283.000000)">
                        <mask id="mask-2" fill="white">
                            <use xlink:href="#path-1"></use>
                        </mask>
                        <g id="Clip-2"></g>
                        <path d="M50.519,0.001 C28.786,53.309 5.217,191.345 5.217,191.345 C1.14,227.427 -0.534,263.412 0.148,299.168 C2.525,423.911 33.631,545.533 91.928,655.835 C166.957,797.786 282.472,911.227 425.992,983.904 C553.736,1048.593 864.754,1101.427 1065.595,1101.49 L1066.351,1101.49 C1098.484,1101.49 1127.802,1100.111 1153.052,1097.22 C1310.403,1079.194 1426.465,945.833 1426.549,791.151 L1426.549,790.777 C1426.549,779.132 1425.877,767.361 1424.524,755.516 C1405.131,586.193 1252.146,464.651 1082.82,484.048 C1026.716,490.473 864.032,486.618 738.244,461.207 C236.326,359.813 50.519,0.001 50.519,0.001 Z" id="Fill-1" fill="url(#linearGradient-3)" mask="url(#mask-2)"></path>
                    </g>
                </g>
            </g>
        </g>
    </g>
</svg>